<svg width="400" height="400" viewBox="0 0 400 400" fill="none" xmlns="http://www.w3.org/2000/svg">
<circle cx="200" cy="200" r="200" fill="#3B4856"/>
<path d="M208.234 273H143.634C141.9 273 141.034 272.2 141.034 270.6V260.4C141.034 258.8 141.9 258 143.634 258H158.834V144.4H143.634C141.9 144.4 141.034 143.6 141.034 142V131.8C141.034 130.2 141.9 129.4 143.634 129.4H208.034C221.367 129.4 231.7 132.933 239.034 140C246.5 147.067 250.234 156.333 250.234 167.8C250.234 181.267 244.3 191.333 232.434 198C249.5 202.933 258.034 214.267 258.034 232C258.034 244.533 253.834 254.533 245.434 262C237.167 269.333 224.767 273 208.234 273ZM176.234 258H206.834C217.367 258 225.567 255.8 231.434 251.4C237.434 246.867 240.434 239.933 240.434 230.6C240.434 213.933 229.634 205.6 208.034 205.6H176.234V258ZM176.234 192.4H206.834C213.767 192.267 219.767 190.267 224.834 186.4C230.034 182.533 232.634 176.467 232.634 168.2C232.634 159.933 229.9 153.933 224.434 150.2C219.1 146.333 212.5 144.4 204.634 144.4H176.234V192.4Z" fill="#3498DB"/>
<path d="M62 284.358L147.505 49.4344" stroke="#3498DB" stroke-width="15" stroke-linecap="round"/>
<path d="M336.505 283.923L251 49" stroke="#3498DB" stroke-width="15" stroke-linecap="round"/>
<path d="M200 90V60" stroke="#3498DB" stroke-width="10" stroke-linecap="round"/>
<path d="M200 151V121" stroke="#3498DB" stroke-width="10" stroke-linecap="round"/>
<path d="M200 213V183" stroke="#3498DB" stroke-width="10" stroke-linecap="round"/>
<path d="M200 280V250" stroke="#3498DB" stroke-width="10" stroke-linecap="round"/>
</svg>
