<svg width="737" height="737" viewBox="0 0 737 737" fill="none" xmlns="http://www.w3.org/2000/svg">
<g clip-path="url(#clip0_20_10)">
<path d="M368.504 737.008C572.023 737.008 737.008 572.023 737.008 368.504C737.008 164.985 572.023 0 368.504 0C164.985 0 0 164.985 0 368.504C0 572.023 164.985 737.008 368.504 737.008Z" fill="white"/>
<path d="M368.506 717.089C561.023 717.089 717.089 561.023 717.089 368.506C717.089 175.99 561.023 19.924 368.506 19.924C175.99 19.924 19.9241 175.99 19.9241 368.506C19.9241 561.023 175.99 717.089 368.506 717.089Z" fill="black"/>
<path d="M368.506 696.152C549.46 696.152 696.152 549.46 696.152 368.506C696.152 187.552 549.46 40.8603 368.506 40.8603C187.552 40.8603 40.8602 187.552 40.8602 368.506C40.8602 549.46 187.552 696.152 368.506 696.152Z" fill="#000080"/>
<path d="M290.009 36.0039V148.685C289.753 148.666 289.497 148.648 289.241 148.63C258.014 148.631 228.066 161.036 205.984 183.117C183.903 205.198 171.498 235.146 171.498 266.374C171.554 287.152 177.107 307.546 187.594 325.485C198.081 343.423 213.128 358.267 231.208 368.508C213.13 378.749 198.084 393.59 187.597 411.527C177.11 429.463 171.555 449.855 171.498 470.632C171.498 501.859 183.903 531.807 205.984 553.888C228.066 575.97 258.014 588.375 289.241 588.375C289.497 588.355 289.753 588.334 290.009 588.312V701.004H447.008V412.968H505.874V588.388H564.697V148.609H505.874V324.04H447.008V36.0039H290.009ZM289.241 208.168C289.497 208.191 289.753 208.216 290.009 208.243V324.558C289.753 324.571 289.497 324.583 289.241 324.592C281.596 324.593 274.025 323.087 266.962 320.162C259.898 317.236 253.48 312.948 248.074 307.542C242.668 302.136 238.38 295.718 235.455 288.654C232.529 281.591 231.024 274.02 231.024 266.375C231.026 250.936 237.16 236.131 248.078 225.215C258.996 214.299 273.803 208.167 289.241 208.168ZM289.241 412.425C289.498 412.452 289.754 412.48 290.009 412.509V528.825C289.753 528.84 289.497 528.854 289.241 528.866C281.596 528.867 274.025 527.361 266.962 524.436C259.898 521.51 253.48 517.222 248.074 511.816C242.668 506.41 238.38 499.992 235.455 492.929C232.529 485.865 231.024 478.295 231.024 470.649C231.026 455.211 237.16 440.405 248.078 429.489C258.996 418.573 273.803 412.442 289.241 412.443V412.425Z" fill="white" stroke="black" stroke-width="4.18643"/>
<path d="M368.504 86.3616V650.646" stroke="black" stroke-width="13.4173" stroke-dasharray="26.83 26.83"/>
<path d="M368.508 19.919C322.731 19.9181 277.401 28.934 235.108 46.452C192.815 63.9699 154.386 89.6468 122.016 122.016C89.6468 154.386 63.9699 192.815 46.4519 235.108C28.934 277.401 19.9181 322.731 19.9191 368.508C19.9196 414.285 28.9365 459.614 46.4551 501.906C63.9736 544.198 89.6507 582.625 122.02 614.993C154.39 647.362 192.818 673.038 235.11 690.555C277.403 708.072 322.732 717.088 368.508 717.087C460.957 717.086 549.619 680.36 614.99 614.99C680.361 549.619 717.086 460.957 717.087 368.508C717.088 322.732 708.072 277.403 690.555 235.11C673.038 192.818 647.362 154.39 614.993 122.02C582.625 89.6507 544.198 63.9736 501.906 46.455C459.614 28.9365 414.285 19.9195 368.508 19.919ZM368.508 40.8608C411.536 40.8606 454.142 49.3353 493.894 65.8011C533.646 82.2669 569.766 106.401 600.191 136.826C630.616 167.251 654.75 203.371 671.216 243.123C687.681 282.875 696.156 325.481 696.156 368.508C696.156 411.536 687.681 454.142 671.216 493.894C654.75 533.646 630.616 569.766 600.191 600.191C569.766 630.616 533.646 654.75 493.894 671.216C454.142 687.682 411.536 696.156 368.508 696.156C325.481 696.156 282.875 687.682 243.123 671.216C203.371 654.75 167.251 630.616 136.826 600.191C106.401 569.766 82.2669 533.646 65.8011 493.894C49.3353 454.142 40.8606 411.536 40.8608 368.508C40.8606 325.481 49.3353 282.875 65.8011 243.123C82.2669 203.371 106.401 167.251 136.826 136.826C167.251 106.401 203.371 82.2668 243.123 65.8011C282.875 49.3353 325.481 40.8606 368.508 40.8608Z" fill="black"/>
</g>
<defs>
<clipPath id="clip0_20_10">
<rect width="737" height="737" fill="white"/>
</clipPath>
</defs>
</svg>
